Coordinates
version=1
nRows=22
nColumns=24
inDegrees=yes

Units are S.I. units (second, meters, Newtons, ...)
Angles are in degrees.

endheader
time	pelvis_tilt	pelvis_list	pelvis_rotation	pelvis_tx	pelvis_ty	pelvis_tz	hip_flexion_r	hip_adduction_r	hip_rotation_r	knee_angle_r	ankle_angle_r	subtalar_angle_r	mtp_angle_r	hip_flexion_l	hip_adduction_l	hip_rotation_l	knee_angle_l	ankle_angle_l	subtalar_angle_l	mtp_angle_l	lumbar_extension	lumbar_bending	lumbar_rotation
      4.43000000	    -10.10319276	     -9.10400768	      3.42703559	     -1.50655845	     -0.02493158	      0.45659065	     22.47455956	     10.97224206	     -4.55325364	    -17.11855126	     -5.21883402	     -7.50519532	      3.05420647	     18.34216814	     -9.14002594	      5.73065959	    -62.03719248	    -27.42554852	     -4.78740937	     26.94193721	      9.56242354	      8.29641196	     -3.28573894
      4.43500000	     -9.94081300	     -8.94330840	      3.39715277	     -1.50074407	     -0.02416023	      0.45719756	     21.77930622	     10.95023569	     -4.28311719	    -16.98301673	     -4.82612176	     -7.48520299	      3.01746030	     19.06260874	     -8.85105837	      5.78712927	    -62.85936208	    -26.94904318	     -6.27424605	     26.18147155	      9.36666522	      8.12325955	     -2.99450543
      4.44000000	     -9.79770963	     -8.81716576	      3.36574153	     -1.49496995	     -0.02339178	      0.45777859	     21.09788101	     10.95861792	     -4.03521469	    -16.81407140	     -4.54733416	     -7.52922117	      2.96291980	     19.79961904	     -8.60204666	      5.85385850	    -63.57818223	    -26.47082268	     -7.61425843	     25.69182557	      9.19242365	      7.99056397	     -2.69030526
      4.44500000	     -9.67857531	     -8.58875138	      3.30162387	     -1.48920897	     -0.02258556	      0.45839616	     20.43041375	     10.86924663	     -3.71839284	    -16.64783159	     -4.23970822	     -7.57271190	      2.92901551	     20.51406285	     -8.25003306	      5.86896669	    -64.16727244	    -25.96077958	     -8.73381469	     25.27617172	      9.03621415	      7.74996328	     -2.35201408
      4.45000000	     -9.57877005	     -8.34365554	      3.22892785	     -1.48347834	     -0.02178638	      0.45902390	     19.77915755	     10.76048748	     -3.39218983	    -16.47120781	     -3.94379767	     -7.63066139	      2.89470139	     21.23278666	     -7.88987125	      5.86842023	    -64.65559336	    -25.38595129	     -9.61390457	     25.02019591	      8.89827722	      7.49206720	     -2.00705458
      4.45500000	     -9.51493437	     -8.10602254	      3.19271108	     -1.47773211	     -0.02097564	      0.45955664	     19.14495904	     10.63306339	     -3.09473316	    -16.24429760	     -3.70998866	     -7.66008202	      2.87681380	     21.97228795	     -7.51518463	      5.92552743	    -65.02750955	    -24.70783991	    -10.24355995	     24.99243104	      8.81594208	      7.23870982	     -1.73955622
      4.46000000	     -9.44609135	     -7.74809604	      3.05720721	     -1.47210665	     -0.02012968	      0.46023563	     18.53725705	     10.41503044	     -2.73000795	    -16.09510370	     -3.44143236	     -7.75031572	      2.83261891	     22.65837517	     -7.06861722	      5.80128746	    -65.28757362	    -24.06209672	    -10.79058714	     24.86576691	      8.68633875	      6.87522100	     -1.28787905
      4.46500000	     -9.40371362	     -7.38916493	      2.91695046	     -1.46647950	     -0.01924940	      0.46087160	     17.93792166	     10.18266586	     -2.35227560	    -15.90202980	     -3.23512971	     -7.78755214	      2.78247432	     23.34090425	     -6.61672825	      5.68719479	    -65.42830467	    -23.32464907	    -11.13973658	     24.84594441	      8.59198808	      6.51433267	     -0.87225377
      4.47000000	     -9.37627191	     -7.00513868	      2.75704098	     -1.46084710	     -0.01838341	      0.46156819	     17.34181925	      9.92799407	     -1.93560865	    -15.68790972	     -2.99851739	     -7.82454483	      2.73522426	     24.01372822	     -6.16581298	      5.52981650	    -65.46724615	    -22.51129345	    -11.25539692	     24.90953578	      8.51769470	      6.12536621	     -0.43929518
      4.47500000	     -9.36817664	     -6.58416917	      2.61233075	     -1.45529379	     -0.01751248	      0.46223104	     16.77999506	      9.61781406	     -1.56561432	    -15.48365478	     -2.78229347	     -7.85860699	      2.70208875	     24.68735287	     -5.66895721	      5.37950998	    -65.39715573	    -21.66293845	    -11.22305582	     25.05370231	      8.45691269	      5.69642521	     -0.02957645
      4.48000000	     -9.36944934	     -6.15464954	      2.45507591	     -1.44978163	     -0.01665936	      0.46289647	     16.22515193	      9.29373038	     -1.16999056	    -15.26650737	     -2.56109242	     -7.86791030	      2.67471804	     25.34904003	     -5.17488881	      5.21337049	    -65.23180132	    -20.76492835	    -11.03837699	     25.24200167	      8.40384563	      5.26343275	      0.37599415
      4.48500000	     -9.38721636	     -5.69897285	      2.33183086	     -1.44433024	     -0.01583722	      0.46353043	     15.70136742	      8.92415299	     -0.86868201	    -15.05314675	     -2.33251736	     -7.89562996	      2.66647207	     26.01668632	     -4.64614962	      5.05100063	    -64.96608551	    -19.94128260	    -10.86092290	     25.43366707	      8.36400784	      4.79833373	      0.73875296
      4.49000000	     -9.40443444	     -5.25541859	      2.13798323	     -1.43886388	     -0.01500332	      0.46421287	     15.16473713	      8.57389821	     -0.51579535	    -14.81355006	     -2.14182958	     -7.82783049	      2.66461221	     26.63612993	     -4.16225924	      4.85069334	    -64.59492626	    -19.03694345	    -10.53725208	     25.66951250	      8.32699145	      4.35649721	      1.17551840
      4.49500000	     -9.42197376	     -4.82909598	      1.97462710	     -1.43341960	     -0.01423204	      0.46484095	     14.62247985	      8.22632096	     -0.20188102	    -14.54842657	     -1.92968638	     -7.76924320	      2.65895396	     27.25179585	     -3.69377594	      4.66433363	    -64.15067398	    -18.19064821	    -10.21366393	     25.86022606	      8.29630533	      3.93477405	      1.56196134
      4.50000000	     -9.43306228	     -4.42800533	      1.79552496	     -1.42796179	     -0.01350368	      0.46549225	     14.05601206	      7.90325598	      0.13371098	    -14.24436958	     -1.70890970	     -7.66416835	      2.65607751	     27.83749990	     -3.26465546	      4.48347652	    -63.62820551	    -17.36731327	     -9.85937144	     26.01285123	      8.26484194	      3.54273524	      1.95505845
      4.50500000	     -9.43782949	     -4.04531899	      1.61986594	     -1.42253163	     -0.01283695	      0.46609560	     13.49256931	      7.58919643	      0.41922962	    -13.94427016	     -1.49725226	     -7.56229601	      2.64864995	     28.39906878	     -2.85847023	      4.29986162	    -63.02828289	    -16.59300313	     -9.58087475	     26.10473150	      8.22656239	      3.17522465	      2.32471025
      4.51000000	     -9.47918481	     -3.69545935	      1.52123617	     -1.41709473	     -0.01229837	      0.46656689	     12.95619676	      7.28344766	      0.63247762	    -13.60789197	     -1.28985253	     -7.52102943	      2.63743187	     29.00228906	     -2.44479763	      4.19139222	    -62.36391564	    -15.98752275	     -9.49146789	     26.13510713	      8.24125069	      2.83446219	      2.56309840
      4.51500000	     -9.42166847	     -3.37012877	      1.25382594	     -1.41164929	     -0.01169938	      0.46723545	     12.32382663	      7.03825418	      0.95668966	    -13.29472826	     -1.08376990	     -7.33616097	      2.63110414	     29.43658794	     -2.16817870	      3.93692895	    -61.61037155	    -15.23132469	     -9.25755481	     26.13294509	      8.13912487	      2.54610436	      3.04259236
      4.52000000	     -9.37998898	     -3.08031447	      1.06166861	     -1.40617865	     -0.01121816	      0.46776274	     11.69085085	      6.80618625	      1.22465039	    -12.94084116	     -0.88135037	     -7.22373692	      2.57966219	     29.88834326	     -1.88723443	      3.75862550	    -60.80693868	    -14.61451903	     -9.18578668	     25.99024538	      8.06789029	      2.29607830	      3.38904352
      4.52500000	     -9.40442106	     -2.83588944	      0.94036704	     -1.40069079	     -0.01091803	      0.46817050	     11.12180027	      6.59970503	      1.43322561	    -12.56583139	     -0.68220627	     -7.17095837	      2.54414862	     30.41275565	     -1.61351334	      3.66831240	    -59.94856515	    -14.12849170	     -9.26420136	     25.86126315	      8.08061719	      2.08161775	      3.60057584
      4.53000000	     -9.31256129	     -2.56589052	      0.66702966	     -1.39519002	     -0.01050964	      0.46875243	     10.44583413	      6.39476462	      1.73717272	    -12.22925669	     -0.49906104	     -7.04756228	      2.47791855	     30.74349899	     -1.42193682	      3.39534247	    -58.98722061	    -13.60989299	     -9.37119082	     25.56401862	      7.95762840	      1.86878840	      4.01377660
      4.53500000	     -9.22382044	     -2.35389210	      0.45096494	     -1.38964620	     -0.01020529	      0.46921327	      9.75044711	      6.23222697	      2.01942410	    -11.85156715	     -0.31553463	     -6.96735542	      2.37285995	     31.07361749	     -1.25427337	      3.21106765	    -57.98706949	    -13.19735648	     -9.56431906	     25.15077475	      7.85494279	      1.71490766	      4.34087928
